<svg viewBox="0 0 1172 756" xmlns="http://www.w3.org/2000/svg">
  <defs>
    <linearGradient id="goldGrad" x1="0%" y1="0%" x2="100%" y2="0%">
      <stop offset="0%" stop-color="#B68C2D"/>
      <stop offset="38%" stop-color="#DAB02B"/>
      <stop offset="100%" stop-color="#DAB02B"/>
    </linearGradient>
  </defs>
  <rect x="0" y="0" width="1172" height="756" fill="#ffffff"/>
  <path d="M 537,348 L 537,374 L 563,374 L 563,348 Z M 506,348 L 506,374 L 532,374 L 532,348 Z M 537,318 L 537,343 L 563,343 L 563,318 Z M 506,318 L 506,343 L 532,343 L 532,318 Z M 710,209 L 686,199 L 664,195 L 664,252 L 669,252 L 686,259 L 705,276 L 718,298 L 722,312 L 723,327 L 720,345 L 713,361 L 698,378 L 681,388 L 665,392 L 507,392 L 506,636 L 459,635 L 459,325 L 506,278 L 507,298 L 563,298 L 563,252 L 599,251 L 599,195 L 591,194 L 599,186 L 459,325 L 459,692 L 672,692 L 698,688 L 720,681 L 743,668 L 766,647 L 782,625 L 792,599 L 797,568 L 797,528 L 793,505 L 784,480 L 764,448 L 735,421 L 755,395 L 768,366 L 774,335 L 772,298 L 763,269 L 748,243 L 730,223 Z M 544,578 L 569,577 L 570,601 L 567,601 L 567,580 L 567,601 L 546,602 Z M 513,578 L 538,577 L 539,601 L 536,601 L 536,580 L 536,601 L 515,602 Z M 545,550 L 566,549 L 567,570 L 546,571 Z M 514,550 L 535,549 L 536,570 L 515,571 Z M 544,547 L 569,546 L 570,570 L 567,570 L 567,549 L 545,549 Z M 513,547 L 538,546 L 539,570 L 536,570 L 536,549 L 514,549 Z M 544,514 L 569,513 L 570,538 L 567,538 L 567,517 L 567,538 L 546,539 Z M 513,514 L 538,513 L 539,538 L 536,538 L 536,517 L 536,538 L 515,539 Z M 545,487 L 566,486 L 567,507 L 546,508 Z M 514,487 L 535,486 L 536,507 L 515,508 Z M 544,484 L 569,483 L 570,507 L 567,507 L 567,486 L 545,486 Z M 513,484 L 538,483 L 539,507 L 536,507 L 536,486 L 514,486 Z M 577,457 L 687,458 L 698,461 L 712,468 L 728,483 L 736,494 L 745,513 L 749,532 L 749,550 L 745,570 L 735,593 L 722,611 L 711,622 L 698,630 L 678,636 L 576,635 Z" fill="url(#goldGrad)" fill-rule="evenodd"/>
  <path d="M 663,38 L 445,252 L 395,299 L 395,692 L 458,692 L 458,325 L 599,185 L 600,373 L 663,346 Z" fill="#212020" fill-rule="evenodd"/>
  <path d="M 545,578 L 567,579 L 569,601 L 569,578 Z M 514,578 L 536,579 L 538,601 L 538,578 Z M 545,547 L 567,548 L 569,570 L 569,547 Z M 514,547 L 536,548 L 538,570 L 538,547 Z M 545,514 L 545,516 L 567,516 L 569,538 L 569,514 Z M 514,514 L 514,516 L 536,516 L 538,538 L 538,514 Z M 545,484 L 567,485 L 567,508 L 569,507 L 569,484 Z M 514,484 L 536,485 L 536,508 L 538,507 L 538,484 Z M 535,319 L 535,344 L 560,344 L 537,344 Z" fill="#B3B3B3" fill-rule="evenodd"/>
</svg>
